<svg role="img" viewBox="0 0 50 50" xmlns="http://www.w3.org/2000/svg" id="Alteryx--Streamline-Simple-Icons" height="50" width="50">
  <desc>
    Alteryx Streamline Icon: https://streamlinehq.com
  </desc>
  <title>Alteryx</title>
  <path d="m4.816666666666666 27.5 -0.02916666666666667 0.020833333333333336 -0.02916666666666667 0.01666666666666667a3.741666666666667 3.741666666666667 0 0 1 -1.9645833333333333 0.6104166666666667C1.8458333333333334 28.125000000000004 1.5 27.791666666666668 1.4791666666666667 26.875000000000004c0.020833333333333336 -1.05 0.37083333333333335 -1.3750000000000002 1.5562500000000001 -1.4479166666666667l1.6354166666666667 -0.07708333333333334 0.07291666666666669 -0.0041666666666666675h0.07083333333333335V27.5zm2.9770833333333337 0.5166666666666667a0.3854166666666667 0.3854166666666667 0 0 0 -0.3791666666666667 -0.2854166666666667 0.7708333333333334 0.7708333333333334 0 0 0 -0.15 0.01875c-0.2520833333333333 0.0625 -0.39375000000000004 0.07916666666666668 -0.5875 0.09375 -0.37083333333333335 0.01666666666666667 -0.4375 -0.12708333333333333 -0.45833333333333337 -0.5416666666666667v-5.691666666666667a0.5 0.5 0 0 0 -0.18333333333333335 -0.34166666666666673l-0.03541666666666667 -0.025c-0.0125 -0.008333333333333335 -0.025 -0.020833333333333336 -0.04166666666666667 -0.02916666666666667 -0.30833333333333335 -0.18125 -0.8208333333333334 -0.32708333333333334 -1.2583333333333333 -0.4375l-0.03125 -0.010416666666666668a7.160416666666666 7.160416666666666 0 0 0 -2.4125 -0.15c-0.25 0.025 -0.9208333333333334 0.13541666666666669 -1.1458333333333335 0.2125 -0.06666666666666668 0.020833333333333336 -0.27708333333333335 0.12291666666666667 -0.2854166666666667 0.3229166666666667 0.0041666666666666675 0.10416666666666669 0.12083333333333335 0.4375 0.12083333333333335 0.4375 0.07708333333333334 0.23125 0.15833333333333335 0.28750000000000003 0.3041666666666667 0.31875000000000003 0.11875000000000001 0.0125 0.375 -0.04166666666666667 0.5437500000000001 -0.06875a5.679166666666667 5.679166666666667 0 0 1 1.9208333333333336 -0.06666666666666668c0.74375 0.11458333333333334 1.0291666666666668 0.34375000000000006 1.0291666666666668 0.34375000000000006v2.2083333333333335l-0.06458333333333334 0.0020833333333333337 -1.5875000000000001 0.04166666666666667c-2.125 0.06666666666666668 -3.104166666666667 0.9083333333333334 -3.091666666666667 2.604166666666667 -0.0020833333333333337 0.7708333333333334 0.23958333333333337 1.3895833333333336 0.6979166666666667 1.7875 0.4270833333333333 0.375 1.0541666666666667 0.5750000000000001 1.8083333333333333 0.5750000000000001h0.0020833333333333337a3.604166666666667 3.604166666666667 0 0 0 2.3375000000000004 -0.8416666666666668l0.06875 -0.05416666666666667 0.03541666666666667 0.07916666666666668a1.2729166666666667 1.2729166666666667 0 0 0 0.8812500000000001 0.7395833333333334 2.441666666666667 2.441666666666667 0 0 0 0.8583333333333334 0.06458333333333334c0.24375000000000002 -0.03333333333333334 0.5645833333333334 -0.07708333333333334 0.9229166666666667 -0.24583333333333335 0.19791666666666669 -0.09375 0.3375 -0.20833333333333337 0.32708333333333334 -0.41666666666666674a4.24375 4.24375 0 0 0 -0.14583333333333337 -0.64375zm23.460416666666667 1.2791666666666668h-0.7708333333333334a0.36875 0.36875 0 0 1 -0.28125000000000006 -0.10625c-0.0625 -0.07291666666666669 -0.08958333333333333 -0.17083333333333336 -0.08958333333333333 -0.3041666666666667v-7.3125c-0.00625 -0.1375 0.02916666666666667 -0.23750000000000002 0.1 -0.3041666666666667 0.0625 -0.0625 0.15208333333333335 -0.08958333333333333 0.275 -0.08958333333333333h0.6979166666666667c0.13125 0 0.21875 0.027083333333333334 0.28750000000000003 0.08333333333333334 0.06875 0.05833333333333334 0.10625 0.15625 0.10416666666666669 0.27083333333333337l0.008333333333333335 0.19583333333333336 0.00625 0.16458333333333336 0.11041666666666668 -0.12083333333333335a2.2979166666666666 2.2979166666666666 0 0 1 2.1833333333333336 -0.7229166666666667c0.14583333333333337 0.027083333333333334 0.2 0.1729166666666667 0.1875 0.25 0 0.03958333333333334 0 0.06875 -0.0041666666666666675 0.09583333333333334l-0.11666666666666668 0.7375a0.2416666666666667 0.2416666666666667 0 0 1 -0.22291666666666668 0.22291666666666668 1.2875 1.2875 0 0 1 -0.19791666666666669 -0.020833333333333336c-0.08333333333333334 -0.0125 -0.17708333333333337 -0.02916666666666667 -0.34375000000000006 -0.02916666666666667 -0.5416666666666667 0 -1.1437500000000003 0.35625000000000007 -1.5458333333333334 0.9125000000000001l-0.0125 0.01666666666666667v5.65c0 0.125 -0.03125 0.225 -0.09375 0.29583333333333334a0.3625 0.3625 0 0 1 -0.28125000000000006 0.11458333333333334zm-4.764583333333333 -4.947916666666667h-3.5458333333333334c0.05 -1.7875 0.73125 -2.5208333333333335 1.8541666666666667 -2.5208333333333335 1.0916666666666668 0 1.7083333333333333 0.6 1.7083333333333333 2.002083333333333 0 0.11041666666666668 0 0.38958333333333334 -0.01666666666666667 0.5208333333333334zm-1.6583333333333334 -3.6583333333333337c-1.9854166666666668 0 -3.479166666666667 1.38125 -3.479166666666667 4.520833333333334 0 2.879166666666667 1.3479166666666669 4.291666666666667 3.885416666666667 4.291666666666667 0.40208333333333335 0 0.8791666666666667 -0.04583333333333334 1.3333333333333335 -0.13958333333333336 0.07291666666666669 -0.0125 0.14583333333333337 -0.03125 0.21875 -0.04791666666666667a5.104166666666667 5.104166666666667 0 0 0 0.6875000000000001 -0.25c0.15833333333333335 -0.060416666666666674 0.28125000000000006 -0.18333333333333335 0.28958333333333336 -0.3354166666666667a6.958333333333334 6.958333333333334 0 0 0 -0.16666666666666669 -0.6875000000000001c-0.0625 -0.15208333333333335 -0.2 -0.24791666666666667 -0.33958333333333335 -0.23958333333333337 -0.04791666666666667 0 -0.7291666666666666 0.14791666666666667 -0.7708333333333334 0.16041666666666668a5.012500000000001 5.012500000000001 0 0 1 -1.2208333333333334 0.16041666666666668c-1.8041666666666667 0 -2.3416666666666672 -0.8625 -2.3416666666666672 -2.6375v-0.12916666666666668h4.729166666666667a0.29791666666666666 0.29791666666666666 0 0 0 0.2666666666666667 -0.2604166666666667l0.0041666666666666675 -0.0625c0.01666666666666667 -0.30833333333333335 0.027083333333333334 -0.6354166666666667 0.027083333333333334 -0.8958333333333334 0 -2.18125 -1.0583333333333333 -3.447916666666667 -3.125 -3.447916666666667zm11.189583333333335 11.9h-0.05208333333333334c-0.27916666666666673 0 -0.5083333333333333 -0.020833333333333336 -0.7333333333333334 -0.06458333333333334 -0.13958333333333336 -0.025 -0.19166666666666668 -0.20625000000000002 -0.1625 -0.45208333333333334 0 0 0.01666666666666667 -0.2625 0.05625 -0.4479166666666667 0.03541666666666667 -0.1875 0.125 -0.275 0.225 -0.275h0.02916666666666667l0.07708333333333334 0.0041666666666666675c0.043750000000000004 0.0020833333333333337 0.10833333333333334 0.010416666666666668 0.16875 0.01666666666666667 0.1375 0.014583333333333335 0.27708333333333335 0.02916666666666667 0.3875 0.02916666666666667 0.9208333333333334 -0.010416666666666668 1.4187500000000002 -0.3479166666666667 1.7708333333333335 -1.2020833333333334l0.425 -1.0375 0.04166666666666667 -0.11041666666666668 0.014583333333333335 -0.04583333333333334 -0.014583333333333335 -0.04791666666666667 -2.8395833333333336 -7.508333333333334a0.27708333333333335 0.27708333333333335 0 0 1 -0.01666666666666667 -0.09791666666666668 0.1875 0.1875 0 0 1 0.04166666666666667 -0.125 0.1875 0.1875 0 0 1 0.13541666666666669 -0.05625h1.0770833333333334c0.15625 0 0.27083333333333337 0.08333333333333334 0.30625 0.2041666666666667l1.8708333333333336 5.375000000000001 0.125 0.3625 0.12708333333333333 -0.36041666666666666 1.9312500000000001 -5.3375a0.3166666666666667 0.3166666666666667 0 0 1 0.3041666666666667 -0.24583333333333335h0.008333333333333335l0.02916666666666667 0.0020833333333333337h0.8916666666666667c0.07291666666666669 0 0.125 0.014583333333333335 0.1625 0.043750000000000004a0.14583333333333337 0.14583333333333337 0 0 1 0.05 0.11458333333333334 0.3875 0.3875 0 0 1 -0.027083333333333334 0.1375l-3.1770833333333335 8.520833333333334c-0.6916666666666668 1.897916666666667 -1.5666666666666669 2.604166666666667 -3.233333333333334 2.604166666666667zm12.797916666666667 -3.3125000000000004a0.46458333333333335 0.46458333333333335 0 0 1 -0.425 -0.24583333333333335l-1.6958333333333333 -2.6208333333333336 -0.060416666666666674 -0.08750000000000001 -0.05625 0.08750000000000001 -1.6958333333333333 2.6166666666666667a0.4708333333333334 0.4708333333333334 0 0 1 -0.4291666666666667 0.25l-0.027083333333333334 -0.0041666666666666675h-0.9062500000000001a0.275 0.275 0 0 1 -0.1729166666666667 -0.05 0.2 0.2 0 0 1 -0.07083333333333335 -0.16458333333333336c0 -0.075 0.027083333333333334 -0.15416666666666667 0.07083333333333335 -0.21875l2.4541666666666666 -3.7270833333333333 0.02916666666666667 -0.0375 -0.02916666666666667 -0.0375 -2.2625 -3.4875000000000003a0.3166666666666667 0.3166666666666667 0 0 1 -0.05625 -0.17083333333333336c0 -0.14583333333333337 0.13333333333333336 -0.2354166666666667 0.2625 -0.2354166666666667h0.85c0.18541666666666667 0 0.3291666666666667 0.07916666666666668 0.3916666666666667 0.2041666666666667l1.5916666666666668 2.4166666666666665 0.05625 0.08333333333333334 0.05416666666666667 -0.08333333333333334 1.5833333333333335 -2.4020833333333336a0.41666666666666674 0.41666666666666674 0 0 1 0.38333333333333336 -0.21875h0.8729166666666667c0.125 0 0.26458333333333334 0.08958333333333333 0.26458333333333334 0.2354166666666667 0 0.05208333333333334 -0.020833333333333336 0.10625 -0.0625 0.16666666666666669l-2.260416666666667 3.4916666666666667 -0.027083333333333334 0.0375 0.027083333333333334 0.0375 2.447916666666667 3.71875a0.38333333333333336 0.38333333333333336 0 0 1 0.07916666666666668 0.225 0.20625000000000002 0.20625000000000002 0 0 1 -0.06875 0.16666666666666669 0.28750000000000003 0.28750000000000003 0 0 1 -0.17708333333333337 0.05h-0.9020833333333333l-0.03333333333333334 0.0041666666666666675zm-36.75625 0.020833333333333336c-0.4 0 -0.7854166666666668 -0.06458333333333334 -1.1208333333333336 -0.1875a1.7270833333333333 1.7270833333333333 0 0 1 -0.7229166666666667 -0.45c-0.4833333333333334 -0.53125 -0.525 -1.1916666666666667 -0.53125 -2.0625v-8.333333333333334c0 -0.04791666666666667 0.020833333333333336 -0.09791666666666668 0.05208333333333334 -0.13541666666666669a2.541666666666667 2.541666666666667 0 0 1 1.0979166666666669 -0.7083333333333335c0.027083333333333334 -0.010416666666666668 0.04583333333333334 -0.010416666666666668 0.06875 -0.010416666666666668a0.29166666666666674 0.29166666666666674 0 0 1 0.20625000000000002 0.08333333333333334c0.06666666666666668 0.06875 0.1 0.16666666666666669 0.09791666666666668 0.29166666666666674v8.864583333333334c0.0041666666666666675 0.4604166666666667 0.11458333333333334 0.8270833333333334 0.3166666666666667 1.0562500000000001 0.1729166666666667 0.19166666666666668 0.4541666666666667 0.28750000000000003 0.8104166666666668 0.28750000000000003 0.08750000000000001 0 0.18333333333333335 -0.00625 0.3 -0.020833333333333336a4.354166666666667 4.354166666666667 0 0 0 0.675 -0.1625 0.325 0.325 0 0 1 0.13125 -0.027083333333333334c0.1416666666666667 0 0.26458333333333334 0.1 0.3125 0.24791666666666667 0 0 0.125 0.425 0.1416666666666667 0.625 0.010416666666666668 0.17500000000000002 -0.14583333333333337 0.29166666666666674 -0.28958333333333336 0.34166666666666673a4.500000000000001 4.500000000000001 0 0 1 -1.5458333333333334 0.3zm7.785416666666667 -1.2708333333333335c-0.04583333333333334 -0.15 -0.16875 -0.25 -0.3145833333333333 -0.25a0.35416666666666674 0.35416666666666674 0 0 0 -0.13125 0.027083333333333334 3.4583333333333335 3.4583333333333335 0 0 1 -0.9375000000000001 0.18333333333333335l-0.0375 0.0041666666666666675c-0.3666666666666667 0 -0.6416666666666667 -0.1 -0.8166666666666668 -0.29166666666666674 -0.16666666666666669 -0.18125 -0.2833333333333334 -0.47916666666666674 -0.29166666666666674 -1.03125v-0.02916666666666667l0.043750000000000004 -4.3875h1.7958333333333334a0.3854166666666667 0.3854166666666667 0 0 0 0.25 -0.06875c0.08958333333333333 -0.07083333333333335 0.10416666666666669 -0.1875 0.1 -0.25v-0.5520833333333334c0.0020833333333333337 -0.11875000000000001 -0.03125 -0.2041666666666667 -0.1 -0.25833333333333336a0.3854166666666667 0.3854166666666667 0 0 0 -0.2354166666666667 -0.0625h-1.8104166666666668V18.32916666666667c0 -0.12916666666666668 -0.03125 -0.225 -0.09791666666666668 -0.29375a0.3041666666666667 0.3041666666666667 0 0 0 -0.20625000000000002 -0.08333333333333334c-0.020833333333333336 0 -0.04166666666666667 0 -0.075 0.010416666666666668 -0.10416666666666669 0.03958333333333334 -0.3875 0.1375 -0.6958333333333334 0.35416666666666674a2.7354166666666666 2.7354166666666666 0 0 0 -0.325 0.2854166666666667 0.2125 0.2125 0 0 0 -0.04791666666666667 0.13125l-0.04166666666666667 2.2979166666666666h-0.9291666666666667a0.35000000000000003 0.35000000000000003 0 0 0 -0.25833333333333336 0.09791666666666668 0.375 0.375 0 0 0 -0.08750000000000001 0.2666666666666667v0.5041666666666667c0 0.11041666666666668 -0.0020833333333333337 0.2041666666666667 0.08125 0.29583333333333334 0.09583333333333334 0.08750000000000001 0.1875 0.08125 0.29583333333333334 0.08333333333333334h0.8708333333333333l-0.08333333333333334 4.129166666666667 0.0020833333333333337 0.17708333333333337c0.0041666666666666675 0.875 0.04583333333333334 1.5375 0.53125 2.072916666666667 0.37083333333333335 0.40416666666666673 1.0479166666666668 0.6354166666666667 1.8541666666666667 0.6395833333333334 0.7270833333333333 0 1.2916666666666667 -0.19375 1.5520833333333335 -0.3 0.1375 -0.05833333333333334 0.29375 -0.17083333333333336 0.28750000000000003 -0.34375000000000006 0 -0.16458333333333336 -0.1416666666666667 -0.6270833333333333 -0.1416666666666667 -0.6270833333333333z" fill="#000000" stroke-width="2.0833"></path>
</svg>